<svg width="38" height="39" viewBox="0 0 38 39" fill="none" xmlns="http://www.w3.org/2000/svg">
<path fill-rule="evenodd" clip-rule="evenodd" d="M4.80743 0H12.7999C15.1817 0 17.1124 1.93077 17.1124 4.3125V8.47167C17.1124 10.8534 15.1817 12.7842 12.7999 12.7842H4.80743C2.42571 12.7842 0.494934 10.8534 0.494934 8.47167V4.3125C0.494934 1.93077 2.42571 0 4.80743 0ZM12.7999 9.90917C13.5895 9.89884 14.2271 9.26126 14.2374 8.47167V4.3125C14.2271 3.52291 13.5895 2.88532 12.7999 2.875H4.80743C4.01784 2.88532 3.38026 3.52291 3.36993 4.3125V8.47167C3.38026 9.26126 4.01784 9.89884 4.80743 9.90917H12.7999Z" fill="black"/>
<path fill-rule="evenodd" clip-rule="evenodd" d="M26.5424 0H33.2507C35.6325 0 37.5632 1.93077 37.5632 4.3125V17.4033C37.5632 19.7851 35.6325 21.7158 33.2507 21.7158H26.5424C25.3971 21.721 24.2972 21.2683 23.4873 20.4584C22.6775 19.6485 22.2248 18.5486 22.2299 17.4033V4.3125C22.2299 1.93077 24.1607 0 26.5424 0ZM33.2507 18.8408C34.0446 18.8408 34.6882 18.1972 34.6882 17.4033V4.3125C34.6779 3.52291 34.0403 2.88532 33.2507 2.875H26.5424C25.7485 2.875 25.1049 3.51859 25.1049 4.3125V17.4033C25.0997 17.7862 25.2495 18.1548 25.5202 18.4255C25.7909 18.6963 26.1596 18.846 26.5424 18.8408H33.2507Z" fill="black"/>
<path fill-rule="evenodd" clip-rule="evenodd" d="M26.5424 26.8333H33.2508C35.6325 26.8333 37.5633 28.7641 37.5633 31.1458V34.0208C37.5633 36.4026 35.6325 38.3333 33.2508 38.3333H26.5424C24.1607 38.3333 22.2299 36.4026 22.2299 34.0208V31.1458C22.2299 28.7641 24.1607 26.8333 26.5424 26.8333ZM33.2508 35.4583C34.0404 35.448 34.6779 34.8104 34.6883 34.0208V31.1458C34.6779 30.3562 34.0404 29.7187 33.2508 29.7083H26.5424C25.7485 29.7083 25.1049 30.3519 25.1049 31.1458V34.0208C25.1049 34.8147 25.7485 35.4583 26.5424 35.4583H33.2508Z" fill="black"/>
<path fill-rule="evenodd" clip-rule="evenodd" d="M4.80743 17.8825H12.7999C15.1817 17.8825 17.1124 19.8133 17.1124 22.195V34.0208C17.1124 36.4026 15.1817 38.3333 12.7999 38.3333H4.80743C2.42571 38.3333 0.494934 36.4026 0.494934 34.0208V22.195C0.494934 19.8133 2.42571 17.8825 4.80743 17.8825ZM12.7999 35.4583C13.5895 35.448 14.2271 34.8104 14.2374 34.0208V22.195C14.2271 21.4054 13.5895 20.7678 12.7999 20.7575H4.80743C4.01784 20.7678 3.38026 21.4054 3.36993 22.195V34.0208C3.38026 34.8104 4.01784 35.448 4.80743 35.4583H12.7999Z" fill="black"/>
</svg>
