<svg width="39" height="39" viewBox="0 0 39 39" fill="none" xmlns="http://www.w3.org/2000/svg">
<path fill-rule="evenodd" clip-rule="evenodd" d="M35.2175 9.58426L24.5608 1.70676C21.4436 -0.568919 17.213 -0.568919 14.0958 1.70676L3.45829 9.58426C1.39872 11.068 0.173319 13.4476 0.161621 15.9859V30.2268C0.276668 34.8138 4.08436 38.4414 8.67162 38.3343H29.985C34.5722 38.4414 38.3799 34.8138 38.495 30.2268V15.9668C38.4785 13.4394 37.2619 11.0702 35.2175 9.58426ZM35.62 30.2268C35.5056 33.2263 32.9847 35.5671 29.985 35.4593H8.67162C5.67583 35.5565 3.16125 33.2215 3.03662 30.2268V15.9859C3.04685 14.3566 3.83811 12.8311 5.16412 11.8843L15.8016 4.02592C17.9025 2.49178 20.7541 2.49178 22.855 4.02592L33.4925 11.9034C34.8173 12.8338 35.6101 14.3478 35.62 15.9668V30.2268ZM10.7033 26.3551H27.9533C28.7472 26.3551 29.3908 26.9987 29.3908 27.7926C29.3908 28.5865 28.7472 29.2301 27.9533 29.2301H10.7033C9.90938 29.2301 9.26579 28.5865 9.26579 27.7926C9.26579 26.9987 9.90938 26.3551 10.7033 26.3551Z" fill="black"/>
</svg>
