<svg width="39" height="34" viewBox="0 0 39 34" fill="none" xmlns="http://www.w3.org/2000/svg">
<path d="M32.9806 0.5H6.14726C3.11462 0.65512 0.767754 3.21534 0.876429 6.25V19.4942C0.778144 22.525 3.11935 25.079 6.14726 25.2442H9.9806C10.7745 25.2442 11.4181 24.6006 11.4181 23.8067C11.4181 23.0128 10.7745 22.3692 9.9806 22.3692H6.14726C4.67712 22.1889 3.61613 20.8733 3.75143 19.3983V6.32667C3.6167 4.85564 4.67997 3.54569 6.14726 3.375H32.9806C34.4479 3.54569 35.5112 4.85564 35.3764 6.32667V19.5708C35.5117 21.0458 34.4507 22.3614 32.9806 22.5417H29.1473C28.3534 22.5417 27.7098 23.1853 27.7098 23.9792C27.7098 24.7731 28.3534 25.4167 29.1473 25.4167H32.9806C36.0085 25.2515 38.3497 22.6975 38.2514 19.6667V6.32667C38.3601 3.29201 36.0132 0.731787 32.9806 0.576667V0.5Z" fill="black"/>
<path fill-rule="evenodd" clip-rule="evenodd" d="M17.3406 23.73C17.9304 23.1406 18.7301 22.8096 19.5639 22.81V22.8675C20.3977 22.8671 21.1975 23.1981 21.7873 23.7875L26.2148 28.215C27.1204 29.1089 27.3934 30.4628 26.9048 31.6379C26.4163 32.8129 25.2639 33.5742 23.9914 33.5625H15.1364C13.864 33.5742 12.7116 32.8129 12.223 31.6379C11.7345 30.4628 12.0074 29.1089 12.9131 28.215L17.3406 23.73ZM23.6848 30.2467L19.5639 26.1258L15.4431 30.2467H23.6848Z" fill="black"/>
</svg>
