<svg width="33" height="34" viewBox="0 0 33 34" fill="none" xmlns="http://www.w3.org/2000/svg">
<path fill-rule="evenodd" clip-rule="evenodd" d="M0.255066 7.20833C0.255066 3.50342 3.25849 0.5 6.9634 0.5C10.6683 0.5 13.6717 3.50342 13.6717 7.20833C13.6717 10.9132 10.6683 13.9167 6.9634 13.9167C3.25849 13.9167 0.255066 10.9132 0.255066 7.20833ZM10.7967 7.20833C10.7967 5.09124 9.08049 3.375 6.9634 3.375C4.84631 3.375 3.13007 5.09124 3.13007 7.20833C3.13007 9.32542 4.84631 11.0417 6.9634 11.0417C9.08049 11.0417 10.7967 9.32542 10.7967 7.20833Z" fill="black"/>
<path fill-rule="evenodd" clip-rule="evenodd" d="M19.4217 7.20833C19.4217 3.50342 22.4252 0.5 26.1301 0.5C29.835 0.5 32.8384 3.50342 32.8384 7.20833C32.8384 10.9132 29.835 13.9167 26.1301 13.9167C22.4252 13.9167 19.4217 10.9132 19.4217 7.20833ZM29.9634 7.20833C29.9634 5.09124 28.2472 3.375 26.1301 3.375C24.013 3.375 22.2967 5.09124 22.2967 7.20833C22.2967 9.32542 24.013 11.0417 26.1301 11.0417C28.2472 11.0417 29.9634 9.32542 29.9634 7.20833Z" fill="black"/>
<path fill-rule="evenodd" clip-rule="evenodd" d="M0.255066 26.375C0.255066 22.6701 3.25849 19.6667 6.9634 19.6667C10.6683 19.6667 13.6717 22.6701 13.6717 26.375C13.6717 30.0799 10.6683 33.0833 6.9634 33.0833C3.25849 33.0833 0.255066 30.0799 0.255066 26.375ZM10.7967 26.375C10.7967 24.2579 9.08049 22.5417 6.9634 22.5417C4.84631 22.5417 3.13007 24.2579 3.13007 26.375C3.13007 28.4921 4.84631 30.2083 6.9634 30.2083C9.08049 30.2083 10.7967 28.4921 10.7967 26.375Z" fill="black"/>
<path fill-rule="evenodd" clip-rule="evenodd" d="M19.4217 26.375C19.4217 22.6701 22.4252 19.6667 26.1301 19.6667C29.835 19.6667 32.8384 22.6701 32.8384 26.375C32.8384 30.0799 29.835 33.0833 26.1301 33.0833C22.4252 33.0833 19.4217 30.0799 19.4217 26.375ZM29.9634 26.375C29.9634 24.2579 28.2472 22.5417 26.1301 22.5417C24.013 22.5417 22.2967 24.2579 22.2967 26.375C22.2967 28.4921 24.013 30.2083 26.1301 30.2083C28.2472 30.2083 29.9634 28.4921 29.9634 26.375Z" fill="black"/>
</svg>
