<svg width="31" height="39" viewBox="0 0 31 39" fill="none" xmlns="http://www.w3.org/2000/svg">
<path fill-rule="evenodd" clip-rule="evenodd" d="M30.2464 28.1942L30.7064 30.3792C31.1423 32.2683 30.7119 34.2533 29.5327 35.7922C28.3536 37.331 26.5488 38.2629 24.6114 38.3334H6.82472C4.88731 38.2629 3.08256 37.331 1.90339 35.7922C0.724213 34.2533 0.293808 32.2683 0.729723 30.3792L1.18972 28.1942C1.71879 25.2364 4.26142 23.0627 7.26556 23.0001H24.1706C27.1747 23.0627 29.7173 25.2364 30.2464 28.1942ZM24.6114 35.4392C25.5847 35.4279 26.5006 34.977 27.1031 34.2126V34.2317C27.8423 33.3044 28.1303 32.0961 27.8889 30.9351L27.4289 28.7501C27.1737 27.1308 25.8086 25.9183 24.1706 25.8559H7.26556C5.62751 25.9183 4.26246 27.1308 4.00723 28.7501L3.54723 30.9351C3.31178 32.09 3.59948 33.2899 4.33306 34.2126C4.93553 34.977 5.85147 35.4279 6.82473 35.4392H24.6114Z" fill="black"/>
<path fill-rule="evenodd" clip-rule="evenodd" d="M16.6764 19.1667H14.7597C10.5255 19.1667 7.09303 15.7342 7.09303 11.5V6.44003C7.08792 4.73047 7.76477 3.08946 8.97362 1.88062C10.1825 0.671775 11.8235 -0.00508208 13.533 2.87341e-05H17.903C19.6126 -0.00508208 21.2536 0.671775 22.4624 1.88062C23.6713 3.08946 24.3481 4.73047 24.343 6.44003V11.5C24.343 15.7342 20.9105 19.1667 16.6764 19.1667ZM13.533 2.87503C11.5641 2.87503 9.96803 4.47113 9.96803 6.44003V11.5C9.96803 14.1464 12.1133 16.2917 14.7597 16.2917H16.6764C19.3227 16.2917 21.468 14.1464 21.468 11.5V6.44003C21.468 5.49453 21.0924 4.58776 20.4239 3.91919C19.7553 3.25063 18.8485 2.87503 17.903 2.87503H13.533Z" fill="black"/>
</svg>
